<?xml version="1.0" encoding="UTF-8" standalone="no"?>
<!DOCTYPE svg PUBLIC "-//W3C//DTD SVG 1.1//EN"
 "http://www.w3.org/Graphics/SVG/1.1/DTD/svg11.dtd">
<!-- Generated by graphviz version 9.0.0 (20230911.1827)
 -->
<!-- Title: G Pages: 1 -->
<svg width="894pt" height="476pt"
 viewBox="0.00 0.00 893.60 476.00" xmlns="http://www.w3.org/2000/svg" xmlns:xlink="http://www.w3.org/1999/xlink">
<g id="graph0" class="graph" transform="scale(1 1) rotate(0) translate(4 472)">
<title>G</title>
<polygon fill="white" stroke="none" points="-4,4 -4,-472 889.6,-472 889.6,4 -4,4"/>
<!-- principal -->
<g id="node1" class="node">
<title>principal</title>
<ellipse fill="none" stroke="black" cx="374.99" cy="-450" rx="28.61" ry="18"/>
<text text-anchor="middle" x="374.99" y="-444.57" font-family="Times New Roman,serif" font-size="14.00">AST</text>
</g>
<!-- nodofuncion24 -->
<g id="node2" class="node">
<title>nodofuncion24</title>
<ellipse fill="none" stroke="black" cx="374.99" cy="-378" rx="52.06" ry="18"/>
<text text-anchor="middle" x="374.99" y="-372.57" font-family="Times New Roman,serif" font-size="14.00">FUNCION</text>
</g>
<!-- principal&#45;&gt;nodofuncion24 -->
<g id="edge27" class="edge">
<title>principal&#45;&gt;nodofuncion24</title>
<path fill="none" stroke="black" d="M374.99,-431.7C374.99,-424.41 374.99,-415.73 374.99,-407.54"/>
<polygon fill="black" stroke="black" points="378.49,-407.62 374.99,-397.62 371.49,-407.62 378.49,-407.62"/>
</g>
<!-- nodoIDSnodofuncion24 -->
<g id="node3" class="node">
<title>nodoIDSnodofuncion24</title>
<ellipse fill="none" stroke="black" cx="87.99" cy="-306" rx="41.08" ry="18"/>
<text text-anchor="middle" x="87.99" y="-300.57" font-family="Times New Roman,serif" font-size="14.00">Nombre</text>
</g>
<!-- nodofuncion24&#45;&gt;nodoIDSnodofuncion24 -->
<g id="edge1" class="edge">
<title>nodofuncion24&#45;&gt;nodoIDSnodofuncion24</title>
<path fill="none" stroke="black" d="M330.29,-368.36C282.58,-358.82 204.94,-342.35 138.99,-324 136.1,-323.2 133.13,-322.32 130.15,-321.42"/>
<polygon fill="black" stroke="black" points="131.43,-318.15 120.84,-318.48 129.32,-324.83 131.43,-318.15"/>
</g>
<!-- nodoparametro20 -->
<g id="node5" class="node">
<title>nodoparametro20</title>
<ellipse fill="none" stroke="black" cx="196.99" cy="-306" rx="48.57" ry="18"/>
<text text-anchor="middle" x="196.99" y="-300.57" font-family="Times New Roman,serif" font-size="14.00">Parametro</text>
</g>
<!-- nodofuncion24&#45;&gt;nodoparametro20 -->
<g id="edge4" class="edge">
<title>nodofuncion24&#45;&gt;nodoparametro20</title>
<path fill="none" stroke="black" d="M341.51,-363.83C312.78,-352.53 271.18,-336.17 239.99,-323.91"/>
<polygon fill="black" stroke="black" points="241.42,-320.71 230.83,-320.31 238.86,-327.22 241.42,-320.71"/>
</g>
<!-- nodoparametro73 -->
<g id="node7" class="node">
<title>nodoparametro73</title>
<ellipse fill="none" stroke="black" cx="311.99" cy="-306" rx="48.57" ry="18"/>
<text text-anchor="middle" x="311.99" y="-300.57" font-family="Times New Roman,serif" font-size="14.00">Parametro</text>
</g>
<!-- nodofuncion24&#45;&gt;nodoparametro73 -->
<g id="edge6" class="edge">
<title>nodofuncion24&#45;&gt;nodoparametro73</title>
<path fill="none" stroke="black" d="M360.06,-360.41C352.37,-351.87 342.84,-341.28 334.3,-331.79"/>
<polygon fill="black" stroke="black" points="337.12,-329.69 327.83,-324.59 331.92,-334.37 337.12,-329.69"/>
</g>
<!-- nododeclarar9 -->
<g id="node9" class="node">
<title>nododeclarar9</title>
<ellipse fill="none" stroke="black" cx="438.99" cy="-306" rx="60.54" ry="18"/>
<text text-anchor="middle" x="438.99" y="-300.57" font-family="Times New Roman,serif" font-size="14.00">DECLARAR</text>
</g>
<!-- nodofuncion24&#45;&gt;nododeclarar9 -->
<g id="edge11" class="edge">
<title>nodofuncion24&#45;&gt;nododeclarar9</title>
<path fill="none" stroke="black" d="M390.16,-360.41C397.97,-351.87 407.65,-341.28 416.33,-331.79"/>
<polygon fill="black" stroke="black" points="418.75,-334.33 422.91,-324.59 413.58,-329.61 418.75,-334.33"/>
</g>
<!-- nodoasignacion88 -->
<g id="node14" class="node">
<title>nodoasignacion88</title>
<ellipse fill="none" stroke="black" cx="569.99" cy="-306" rx="52.06" ry="18"/>
<text text-anchor="middle" x="569.99" y="-300.57" font-family="Times New Roman,serif" font-size="14.00">ASIGNAR</text>
</g>
<!-- nodofuncion24&#45;&gt;nodoasignacion88 -->
<g id="edge24" class="edge">
<title>nodofuncion24&#45;&gt;nodoasignacion88</title>
<path fill="none" stroke="black" d="M410.31,-364.32C442.2,-352.88 489.32,-335.96 524.11,-323.47"/>
<polygon fill="black" stroke="black" points="525.29,-326.77 533.52,-320.09 522.92,-320.18 525.29,-326.77"/>
</g>
<!-- nodoreturn85 -->
<g id="node27" class="node">
<title>nodoreturn85</title>
<ellipse fill="none" stroke="black" cx="721.99" cy="-306" rx="35.6" ry="18"/>
<text text-anchor="middle" x="721.99" y="-300.57" font-family="Times New Roman,serif" font-size="14.00">Return</text>
</g>
<!-- nodofuncion24&#45;&gt;nodoreturn85 -->
<g id="edge26" class="edge">
<title>nodofuncion24&#45;&gt;nodoreturn85</title>
<path fill="none" stroke="black" d="M419.29,-368.06C486.14,-354.58 612,-329.19 678.41,-315.79"/>
<polygon fill="black" stroke="black" points="678.73,-319.3 687.84,-313.89 677.34,-312.44 678.73,-319.3"/>
</g>
<!-- nodoidnodofuncion24 -->
<g id="node4" class="node">
<title>nodoidnodofuncion24</title>
<ellipse fill="none" stroke="black" cx="85.99" cy="-234" rx="85.99" ry="18"/>
<text text-anchor="middle" x="85.99" y="-228.57" font-family="Times New Roman,serif" font-size="14.00">CalcularAreaCirculo</text>
</g>
<!-- nodoIDSnodofuncion24&#45;&gt;nodoidnodofuncion24 -->
<g id="edge2" class="edge">
<title>nodoIDSnodofuncion24&#45;&gt;nodoidnodofuncion24</title>
<path fill="none" stroke="black" d="M87.5,-287.7C87.29,-280.41 87.04,-271.73 86.81,-263.54"/>
<polygon fill="black" stroke="black" points="90.31,-263.51 86.53,-253.62 83.31,-263.71 90.31,-263.51"/>
</g>
<!-- nodovalnodoparametro20 -->
<g id="node6" class="node">
<title>nodovalnodoparametro20</title>
<ellipse fill="none" stroke="black" cx="216.99" cy="-234" rx="27" ry="18"/>
<text text-anchor="middle" x="216.99" y="-228.57" font-family="Times New Roman,serif" font-size="14.00">pi</text>
</g>
<!-- nodoparametro20&#45;&gt;nodovalnodoparametro20 -->
<g id="edge3" class="edge">
<title>nodoparametro20&#45;&gt;nodovalnodoparametro20</title>
<path fill="none" stroke="black" d="M201.94,-287.7C204.07,-280.24 206.62,-271.32 209,-262.97"/>
<polygon fill="black" stroke="black" points="212.31,-264.14 211.69,-253.56 205.58,-262.21 212.31,-264.14"/>
</g>
<!-- nodovalnodoparametro73 -->
<g id="node8" class="node">
<title>nodovalnodoparametro73</title>
<ellipse fill="none" stroke="black" cx="301.99" cy="-234" rx="29.61" ry="18"/>
<text text-anchor="middle" x="301.99" y="-228.57" font-family="Times New Roman,serif" font-size="14.00">radio</text>
</g>
<!-- nodoparametro73&#45;&gt;nodovalnodoparametro73 -->
<g id="edge5" class="edge">
<title>nodoparametro73&#45;&gt;nodovalnodoparametro73</title>
<path fill="none" stroke="black" d="M309.52,-287.7C308.47,-280.32 307.21,-271.52 306.03,-263.25"/>
<polygon fill="black" stroke="black" points="309.53,-263.01 304.65,-253.6 302.6,-264 309.53,-263.01"/>
</g>
<!-- nodoIDSnododeclarar9 -->
<g id="node10" class="node">
<title>nodoIDSnododeclarar9</title>
<ellipse fill="none" stroke="black" cx="376.99" cy="-234" rx="27" ry="18"/>
<text text-anchor="middle" x="376.99" y="-228.57" font-family="Times New Roman,serif" font-size="14.00">ID</text>
</g>
<!-- nododeclarar9&#45;&gt;nodoIDSnododeclarar9 -->
<g id="edge8" class="edge">
<title>nododeclarar9&#45;&gt;nodoIDSnododeclarar9</title>
<path fill="none" stroke="black" d="M424.3,-288.41C416.4,-279.5 406.54,-268.35 397.86,-258.56"/>
<polygon fill="black" stroke="black" points="400.57,-256.34 391.32,-251.17 395.33,-260.98 400.57,-256.34"/>
</g>
<!-- nododato34 -->
<g id="node12" class="node">
<title>nododato34</title>
<ellipse fill="none" stroke="black" cx="450.99" cy="-234" rx="28.61" ry="18"/>
<text text-anchor="middle" x="450.99" y="-228.57" font-family="Times New Roman,serif" font-size="14.00">Dato</text>
</g>
<!-- nododeclarar9&#45;&gt;nododato34 -->
<g id="edge10" class="edge">
<title>nododeclarar9&#45;&gt;nododato34</title>
<path fill="none" stroke="black" d="M441.96,-287.7C443.22,-280.32 444.73,-271.52 446.15,-263.25"/>
<polygon fill="black" stroke="black" points="449.57,-264.04 447.81,-253.6 442.67,-262.86 449.57,-264.04"/>
</g>
<!-- nodoidnododeclarar9 -->
<g id="node11" class="node">
<title>nodoidnododeclarar9</title>
<ellipse fill="none" stroke="black" cx="369.99" cy="-162" rx="27" ry="18"/>
<text text-anchor="middle" x="369.99" y="-156.57" font-family="Times New Roman,serif" font-size="14.00">area</text>
</g>
<!-- nodoIDSnododeclarar9&#45;&gt;nodoidnododeclarar9 -->
<g id="edge9" class="edge">
<title>nodoIDSnododeclarar9&#45;&gt;nodoidnododeclarar9</title>
<path fill="none" stroke="black" d="M375.26,-215.7C374.53,-208.41 373.67,-199.73 372.85,-191.54"/>
<polygon fill="black" stroke="black" points="376.33,-191.21 371.85,-181.61 369.37,-191.91 376.33,-191.21"/>
</g>
<!-- nodovalnododato34 -->
<g id="node13" class="node">
<title>nodovalnododato34</title>
<ellipse fill="none" stroke="black" cx="450.99" cy="-162" rx="36.09" ry="18"/>
<text text-anchor="middle" x="450.99" y="-156.57" font-family="Times New Roman,serif" font-size="14.00">double</text>
</g>
<!-- nododato34&#45;&gt;nodovalnododato34 -->
<g id="edge7" class="edge">
<title>nododato34&#45;&gt;nodovalnododato34</title>
<path fill="none" stroke="black" d="M450.99,-215.7C450.99,-208.41 450.99,-199.73 450.99,-191.54"/>
<polygon fill="black" stroke="black" points="454.49,-191.62 450.99,-181.62 447.49,-191.62 454.49,-191.62"/>
</g>
<!-- nodoIDSnodoasignacion88 -->
<g id="node15" class="node">
<title>nodoIDSnodoasignacion88</title>
<ellipse fill="none" stroke="black" cx="531.99" cy="-234" rx="27" ry="18"/>
<text text-anchor="middle" x="531.99" y="-228.57" font-family="Times New Roman,serif" font-size="14.00">ID</text>
</g>
<!-- nodoasignacion88&#45;&gt;nodoIDSnodoasignacion88 -->
<g id="edge21" class="edge">
<title>nodoasignacion88&#45;&gt;nodoIDSnodoasignacion88</title>
<path fill="none" stroke="black" d="M560.79,-288.05C556.44,-280.03 551.13,-270.26 546.27,-261.3"/>
<polygon fill="black" stroke="black" points="549.42,-259.76 541.57,-252.64 543.26,-263.1 549.42,-259.76"/>
</g>
<!-- nodoaritmetica95 -->
<g id="node17" class="node">
<title>nodoaritmetica95</title>
<ellipse fill="none" stroke="black" cx="644.99" cy="-234" rx="68.03" ry="18"/>
<text text-anchor="middle" x="644.99" y="-228.57" font-family="Times New Roman,serif" font-size="14.00">ARITMETICA</text>
</g>
<!-- nodoasignacion88&#45;&gt;nodoaritmetica95 -->
<g id="edge23" class="edge">
<title>nodoasignacion88&#45;&gt;nodoaritmetica95</title>
<path fill="none" stroke="black" d="M587.39,-288.76C596.72,-280.06 608.41,-269.15 618.81,-259.43"/>
<polygon fill="black" stroke="black" points="621.14,-262.05 626.07,-252.67 616.37,-256.93 621.14,-262.05"/>
</g>
<!-- nodoidnodoasignacion88 -->
<g id="node16" class="node">
<title>nodoidnodoasignacion88</title>
<ellipse fill="none" stroke="black" cx="531.99" cy="-162" rx="27" ry="18"/>
<text text-anchor="middle" x="531.99" y="-156.57" font-family="Times New Roman,serif" font-size="14.00">area</text>
</g>
<!-- nodoIDSnodoasignacion88&#45;&gt;nodoidnodoasignacion88 -->
<g id="edge22" class="edge">
<title>nodoIDSnodoasignacion88&#45;&gt;nodoidnodoasignacion88</title>
<path fill="none" stroke="black" d="M531.99,-215.7C531.99,-208.41 531.99,-199.73 531.99,-191.54"/>
<polygon fill="black" stroke="black" points="535.49,-191.62 531.99,-181.62 528.49,-191.62 535.49,-191.62"/>
</g>
<!-- nodooperacionnodoaritmetica95 -->
<g id="node18" class="node">
<title>nodooperacionnodoaritmetica95</title>
<ellipse fill="none" stroke="black" cx="603.99" cy="-162" rx="27" ry="18"/>
<text text-anchor="middle" x="603.99" y="-156.57" font-family="Times New Roman,serif" font-size="14.00">*</text>
</g>
<!-- nodoaritmetica95&#45;&gt;nodooperacionnodoaritmetica95 -->
<g id="edge19" class="edge">
<title>nodoaritmetica95&#45;&gt;nodooperacionnodoaritmetica95</title>
<path fill="none" stroke="black" d="M635.07,-216.05C630.32,-207.94 624.52,-198.04 619.23,-189.01"/>
<polygon fill="black" stroke="black" points="622.38,-187.47 614.31,-180.61 616.34,-191.01 622.38,-187.47"/>
</g>
<!-- nodoaritmetica37 -->
<g id="node19" class="node">
<title>nodoaritmetica37</title>
<ellipse fill="none" stroke="black" cx="716.99" cy="-162" rx="68.03" ry="18"/>
<text text-anchor="middle" x="716.99" y="-156.57" font-family="Times New Roman,serif" font-size="14.00">ARITMETICA</text>
</g>
<!-- nodoaritmetica95&#45;&gt;nodoaritmetica37 -->
<g id="edge18" class="edge">
<title>nodoaritmetica95&#45;&gt;nodoaritmetica37</title>
<path fill="none" stroke="black" d="M662.06,-216.41C671.02,-207.69 682.18,-196.85 692.09,-187.21"/>
<polygon fill="black" stroke="black" points="694.24,-190.01 698.97,-180.53 689.36,-184.99 694.24,-190.01"/>
</g>
<!-- nodoid99 -->
<g id="node25" class="node">
<title>nodoid99</title>
<ellipse fill="none" stroke="black" cx="846.99" cy="-162" rx="27" ry="18"/>
<text text-anchor="middle" x="846.99" y="-156.57" font-family="Times New Roman,serif" font-size="14.00">Id</text>
</g>
<!-- nodoaritmetica95&#45;&gt;nodoid99 -->
<g id="edge20" class="edge">
<title>nodoaritmetica95&#45;&gt;nodoid99</title>
<path fill="none" stroke="black" d="M684.9,-219.17C722.15,-206.26 777.15,-187.2 812.53,-174.94"/>
<polygon fill="black" stroke="black" points="813.55,-178.29 821.85,-171.71 811.25,-171.68 813.55,-178.29"/>
</g>
<!-- nodooperacionnodoaritmetica37 -->
<g id="node20" class="node">
<title>nodooperacionnodoaritmetica37</title>
<ellipse fill="none" stroke="black" cx="636.99" cy="-90" rx="27" ry="18"/>
<text text-anchor="middle" x="636.99" y="-84.58" font-family="Times New Roman,serif" font-size="14.00">*</text>
</g>
<!-- nodoaritmetica37&#45;&gt;nodooperacionnodoaritmetica37 -->
<g id="edge15" class="edge">
<title>nodoaritmetica37&#45;&gt;nodooperacionnodoaritmetica37</title>
<path fill="none" stroke="black" d="M698.03,-144.41C687.06,-134.81 673.14,-122.63 661.36,-112.32"/>
<polygon fill="black" stroke="black" points="663.82,-109.83 653.99,-105.87 659.21,-115.09 663.82,-109.83"/>
</g>
<!-- nodoid45 -->
<g id="node21" class="node">
<title>nodoid45</title>
<ellipse fill="none" stroke="black" cx="708.99" cy="-90" rx="27" ry="18"/>
<text text-anchor="middle" x="708.99" y="-84.58" font-family="Times New Roman,serif" font-size="14.00">Id</text>
</g>
<!-- nodoaritmetica37&#45;&gt;nodoid45 -->
<g id="edge14" class="edge">
<title>nodoaritmetica37&#45;&gt;nodoid45</title>
<path fill="none" stroke="black" d="M715.02,-143.7C714.18,-136.41 713.19,-127.73 712.25,-119.54"/>
<polygon fill="black" stroke="black" points="715.73,-119.15 711.12,-109.61 708.78,-119.94 715.73,-119.15"/>
</g>
<!-- nodoid86 -->
<g id="node23" class="node">
<title>nodoid86</title>
<ellipse fill="none" stroke="black" cx="780.99" cy="-90" rx="27" ry="18"/>
<text text-anchor="middle" x="780.99" y="-84.58" font-family="Times New Roman,serif" font-size="14.00">Id</text>
</g>
<!-- nodoaritmetica37&#45;&gt;nodoid86 -->
<g id="edge16" class="edge">
<title>nodoaritmetica37&#45;&gt;nodoid86</title>
<path fill="none" stroke="black" d="M732.49,-144.05C740.64,-135.13 750.77,-124.06 759.66,-114.33"/>
<polygon fill="black" stroke="black" points="762.2,-116.75 766.36,-107.01 757.03,-112.02 762.2,-116.75"/>
</g>
<!-- nodovalnodoid45 -->
<g id="node22" class="node">
<title>nodovalnodoid45</title>
<ellipse fill="none" stroke="black" cx="707.99" cy="-18" rx="27" ry="18"/>
<text text-anchor="middle" x="707.99" y="-12.57" font-family="Times New Roman,serif" font-size="14.00">pi</text>
</g>
<!-- nodoid45&#45;&gt;nodovalnodoid45 -->
<g id="edge12" class="edge">
<title>nodoid45&#45;&gt;nodovalnodoid45</title>
<path fill="none" stroke="black" d="M708.75,-71.7C708.64,-64.41 708.52,-55.73 708.4,-47.54"/>
<polygon fill="black" stroke="black" points="711.9,-47.57 708.26,-37.62 704.9,-47.67 711.9,-47.57"/>
</g>
<!-- nodovalnodoid86 -->
<g id="node24" class="node">
<title>nodovalnodoid86</title>
<ellipse fill="none" stroke="black" cx="782.99" cy="-18" rx="29.61" ry="18"/>
<text text-anchor="middle" x="782.99" y="-12.57" font-family="Times New Roman,serif" font-size="14.00">radio</text>
</g>
<!-- nodoid86&#45;&gt;nodovalnodoid86 -->
<g id="edge13" class="edge">
<title>nodoid86&#45;&gt;nodovalnodoid86</title>
<path fill="none" stroke="black" d="M781.49,-71.7C781.7,-64.41 781.94,-55.73 782.18,-47.54"/>
<polygon fill="black" stroke="black" points="785.67,-47.71 782.46,-37.62 778.68,-47.51 785.67,-47.71"/>
</g>
<!-- nodovalnodoid99 -->
<g id="node26" class="node">
<title>nodovalnodoid99</title>
<ellipse fill="none" stroke="black" cx="855.99" cy="-90" rx="29.61" ry="18"/>
<text text-anchor="middle" x="855.99" y="-84.58" font-family="Times New Roman,serif" font-size="14.00">radio</text>
</g>
<!-- nodoid99&#45;&gt;nodovalnodoid99 -->
<g id="edge17" class="edge">
<title>nodoid99&#45;&gt;nodovalnodoid99</title>
<path fill="none" stroke="black" d="M849.22,-143.7C850.17,-136.32 851.3,-127.52 852.36,-119.25"/>
<polygon fill="black" stroke="black" points="855.8,-119.97 853.6,-109.61 848.85,-119.08 855.8,-119.97"/>
</g>
<!-- nodoidnodoreturn85 -->
<g id="node28" class="node">
<title>nodoidnodoreturn85</title>
<ellipse fill="none" stroke="black" cx="777.99" cy="-234" rx="47.07" ry="18"/>
<text text-anchor="middle" x="777.99" y="-228.57" font-family="Times New Roman,serif" font-size="14.00">undefined</text>
</g>
<!-- nodoreturn85&#45;&gt;nodoidnodoreturn85 -->
<g id="edge25" class="edge">
<title>nodoreturn85&#45;&gt;nodoidnodoreturn85</title>
<path fill="none" stroke="black" d="M734.98,-288.76C741.67,-280.4 749.98,-270.02 757.51,-260.61"/>
<polygon fill="black" stroke="black" points="760.23,-262.81 763.74,-252.82 754.76,-258.44 760.23,-262.81"/>
</g>
</g>
</svg>
