<?xml version="1.0" encoding="UTF-8" standalone="no"?>
<!DOCTYPE svg PUBLIC "-//W3C//DTD SVG 1.1//EN"
 "http://www.w3.org/Graphics/SVG/1.1/DTD/svg11.dtd">
<!-- Generated by graphviz version 9.0.0 (20230911.1827)
 -->
<!-- Title: G Pages: 1 -->
<svg width="263pt" height="332pt"
 viewBox="0.00 0.00 263.16 332.00" xmlns="http://www.w3.org/2000/svg" xmlns:xlink="http://www.w3.org/1999/xlink">
<g id="graph0" class="graph" transform="scale(1 1) rotate(0) translate(4 328)">
<title>G</title>
<polygon fill="white" stroke="none" points="-4,4 -4,-328 259.16,-328 259.16,4 -4,4"/>
<!-- principal -->
<g id="node1" class="node">
<title>principal</title>
<ellipse fill="none" stroke="black" cx="154.08" cy="-306" rx="28.61" ry="18"/>
<text text-anchor="middle" x="154.08" y="-300.57" font-family="Times New Roman,serif" font-size="14.00">AST</text>
</g>
<!-- nododeclarar33 -->
<g id="node2" class="node">
<title>nododeclarar33</title>
<ellipse fill="none" stroke="black" cx="97.08" cy="-234" rx="60.54" ry="18"/>
<text text-anchor="middle" x="97.08" y="-228.57" font-family="Times New Roman,serif" font-size="14.00">DECLARAR</text>
</g>
<!-- principal&#45;&gt;nododeclarar33 -->
<g id="edge5" class="edge">
<title>principal&#45;&gt;nododeclarar33</title>
<path fill="none" stroke="black" d="M141.43,-289.46C134.57,-281.04 125.91,-270.41 118.07,-260.78"/>
<polygon fill="black" stroke="black" points="120.87,-258.68 111.85,-253.14 115.45,-263.1 120.87,-258.68"/>
</g>
<!-- nodocasteo46 -->
<g id="node7" class="node">
<title>nodocasteo46</title>
<ellipse fill="none" stroke="black" cx="211.08" cy="-234" rx="35.1" ry="18"/>
<text text-anchor="middle" x="211.08" y="-228.57" font-family="Times New Roman,serif" font-size="14.00">CAST</text>
</g>
<!-- principal&#45;&gt;nodocasteo46 -->
<g id="edge9" class="edge">
<title>principal&#45;&gt;nodocasteo46</title>
<path fill="none" stroke="black" d="M166.73,-289.46C173.86,-280.71 182.93,-269.56 191.01,-259.64"/>
<polygon fill="black" stroke="black" points="193.51,-262.12 197.11,-252.15 188.08,-257.7 193.51,-262.12"/>
</g>
<!-- nodoIDSnododeclarar33 -->
<g id="node3" class="node">
<title>nodoIDSnododeclarar33</title>
<ellipse fill="none" stroke="black" cx="51.08" cy="-162" rx="27" ry="18"/>
<text text-anchor="middle" x="51.08" y="-156.57" font-family="Times New Roman,serif" font-size="14.00">ID</text>
</g>
<!-- nododeclarar33&#45;&gt;nodoIDSnododeclarar33 -->
<g id="edge2" class="edge">
<title>nododeclarar33&#45;&gt;nodoIDSnododeclarar33</title>
<path fill="none" stroke="black" d="M85.94,-216.05C80.48,-207.73 73.78,-197.54 67.72,-188.32"/>
<polygon fill="black" stroke="black" points="70.73,-186.53 62.31,-180.09 64.88,-190.37 70.73,-186.53"/>
</g>
<!-- nododato89 -->
<g id="node5" class="node">
<title>nododato89</title>
<ellipse fill="none" stroke="black" cx="126.08" cy="-162" rx="28.61" ry="18"/>
<text text-anchor="middle" x="126.08" y="-156.57" font-family="Times New Roman,serif" font-size="14.00">Dato</text>
</g>
<!-- nododeclarar33&#45;&gt;nododato89 -->
<g id="edge4" class="edge">
<title>nododeclarar33&#45;&gt;nododato89</title>
<path fill="none" stroke="black" d="M104.25,-215.7C107.45,-207.95 111.31,-198.64 114.89,-190.02"/>
<polygon fill="black" stroke="black" points="118.02,-191.6 118.61,-181.02 111.55,-188.92 118.02,-191.6"/>
</g>
<!-- nodoidnododeclarar33 -->
<g id="node4" class="node">
<title>nodoidnododeclarar33</title>
<ellipse fill="none" stroke="black" cx="44.08" cy="-90" rx="44.08" ry="18"/>
<text text-anchor="middle" x="44.08" y="-84.58" font-family="Times New Roman,serif" font-size="14.00">contador</text>
</g>
<!-- nodoIDSnododeclarar33&#45;&gt;nodoidnododeclarar33 -->
<g id="edge3" class="edge">
<title>nodoIDSnododeclarar33&#45;&gt;nodoidnododeclarar33</title>
<path fill="none" stroke="black" d="M49.35,-143.7C48.62,-136.41 47.75,-127.73 46.93,-119.54"/>
<polygon fill="black" stroke="black" points="50.42,-119.21 45.94,-109.61 43.45,-119.91 50.42,-119.21"/>
</g>
<!-- nodovalnododato89 -->
<g id="node6" class="node">
<title>nodovalnododato89</title>
<ellipse fill="none" stroke="black" cx="133.08" cy="-90" rx="27" ry="18"/>
<text text-anchor="middle" x="133.08" y="-84.58" font-family="Times New Roman,serif" font-size="14.00">INT</text>
</g>
<!-- nododato89&#45;&gt;nodovalnododato89 -->
<g id="edge1" class="edge">
<title>nododato89&#45;&gt;nodovalnododato89</title>
<path fill="none" stroke="black" d="M127.81,-143.7C128.54,-136.41 129.41,-127.73 130.22,-119.54"/>
<polygon fill="black" stroke="black" points="133.7,-119.91 131.22,-109.61 126.74,-119.21 133.7,-119.91"/>
</g>
<!-- nodotiponodocasteo46 -->
<g id="node8" class="node">
<title>nodotiponodocasteo46</title>
<ellipse fill="none" stroke="black" cx="211.08" cy="-162" rx="38.09" ry="18"/>
<text text-anchor="middle" x="211.08" y="-156.57" font-family="Times New Roman,serif" font-size="14.00">varchar</text>
</g>
<!-- nodocasteo46&#45;&gt;nodotiponodocasteo46 -->
<g id="edge7" class="edge">
<title>nodocasteo46&#45;&gt;nodotiponodocasteo46</title>
<path fill="none" stroke="black" d="M211.08,-215.7C211.08,-208.41 211.08,-199.73 211.08,-191.54"/>
<polygon fill="black" stroke="black" points="214.58,-191.62 211.08,-181.62 207.58,-191.62 214.58,-191.62"/>
</g>
<!-- nodoid32 -->
<g id="node9" class="node">
<title>nodoid32</title>
<ellipse fill="none" stroke="black" cx="211.08" cy="-90" rx="27" ry="18"/>
<text text-anchor="middle" x="211.08" y="-84.58" font-family="Times New Roman,serif" font-size="14.00">Id</text>
</g>
<!-- nodotiponodocasteo46&#45;&gt;nodoid32 -->
<g id="edge8" class="edge">
<title>nodotiponodocasteo46&#45;&gt;nodoid32</title>
<path fill="none" stroke="black" d="M211.08,-143.7C211.08,-136.41 211.08,-127.73 211.08,-119.54"/>
<polygon fill="black" stroke="black" points="214.58,-119.62 211.08,-109.62 207.58,-119.62 214.58,-119.62"/>
</g>
<!-- nodovalnodoid32 -->
<g id="node10" class="node">
<title>nodovalnodoid32</title>
<ellipse fill="none" stroke="black" cx="211.08" cy="-18" rx="44.08" ry="18"/>
<text text-anchor="middle" x="211.08" y="-12.57" font-family="Times New Roman,serif" font-size="14.00">contador</text>
</g>
<!-- nodoid32&#45;&gt;nodovalnodoid32 -->
<g id="edge6" class="edge">
<title>nodoid32&#45;&gt;nodovalnodoid32</title>
<path fill="none" stroke="black" d="M211.08,-71.7C211.08,-64.41 211.08,-55.73 211.08,-47.54"/>
<polygon fill="black" stroke="black" points="214.58,-47.62 211.08,-37.62 207.58,-47.62 214.58,-47.62"/>
</g>
</g>
</svg>
