<?xml version="1.0" encoding="UTF-8" standalone="no"?>
<!DOCTYPE svg PUBLIC "-//W3C//DTD SVG 1.1//EN"
 "http://www.w3.org/Graphics/SVG/1.1/DTD/svg11.dtd">
<!-- Generated by graphviz version 9.0.0 (20230911.1827)
 -->
<!-- Title: G Pages: 1 -->
<svg width="499pt" height="260pt"
 viewBox="0.00 0.00 498.58 260.00" xmlns="http://www.w3.org/2000/svg" xmlns:xlink="http://www.w3.org/1999/xlink">
<g id="graph0" class="graph" transform="scale(1 1) rotate(0) translate(4 256)">
<title>G</title>
<polygon fill="white" stroke="none" points="-4,4 -4,-256 494.58,-256 494.58,4 -4,4"/>
<!-- principal -->
<g id="node1" class="node">
<title>principal</title>
<ellipse fill="none" stroke="black" cx="286" cy="-234" rx="28.61" ry="18"/>
<text text-anchor="middle" x="286" y="-228.57" font-family="Times New Roman,serif" font-size="14.00">AST</text>
</g>
<!-- nodoasignacion33 -->
<g id="node2" class="node">
<title>nodoasignacion33</title>
<ellipse fill="none" stroke="black" cx="107" cy="-162" rx="52.06" ry="18"/>
<text text-anchor="middle" x="107" y="-156.57" font-family="Times New Roman,serif" font-size="14.00">ASIGNAR</text>
</g>
<!-- principal&#45;&gt;nodoasignacion33 -->
<g id="edge5" class="edge">
<title>principal&#45;&gt;nodoasignacion33</title>
<path fill="none" stroke="black" d="M262.23,-223.7C233.96,-212.65 186.2,-193.97 151.1,-180.25"/>
<polygon fill="black" stroke="black" points="152.65,-177.09 142.06,-176.71 150.1,-183.61 152.65,-177.09"/>
</g>
<!-- nodoasignacion70 -->
<g id="node7" class="node">
<title>nodoasignacion70</title>
<ellipse fill="none" stroke="black" cx="229" cy="-162" rx="52.06" ry="18"/>
<text text-anchor="middle" x="229" y="-156.57" font-family="Times New Roman,serif" font-size="14.00">ASIGNAR</text>
</g>
<!-- principal&#45;&gt;nodoasignacion70 -->
<g id="edge10" class="edge">
<title>principal&#45;&gt;nodoasignacion70</title>
<path fill="none" stroke="black" d="M273.35,-217.46C266.39,-208.92 257.58,-198.1 249.65,-188.36"/>
<polygon fill="black" stroke="black" points="252.39,-186.19 243.36,-180.64 246.96,-190.61 252.39,-186.19"/>
</g>
<!-- nodolower24 -->
<g id="node12" class="node">
<title>nodolower24</title>
<ellipse fill="none" stroke="black" cx="343" cy="-162" rx="44.08" ry="18"/>
<text text-anchor="middle" x="343" y="-156.57" font-family="Times New Roman,serif" font-size="14.00">LOWER</text>
</g>
<!-- principal&#45;&gt;nodolower24 -->
<g id="edge12" class="edge">
<title>principal&#45;&gt;nodolower24</title>
<path fill="none" stroke="black" d="M298.65,-217.46C305.61,-208.92 314.42,-198.1 322.35,-188.36"/>
<polygon fill="black" stroke="black" points="325.04,-190.61 328.64,-180.64 319.61,-186.19 325.04,-190.61"/>
</g>
<!-- nodoprint89 -->
<g id="node14" class="node">
<title>nodoprint89</title>
<ellipse fill="none" stroke="black" cx="448" cy="-162" rx="42.58" ry="18"/>
<text text-anchor="middle" x="448" y="-156.57" font-family="Times New Roman,serif" font-size="14.00">Imprimir</text>
</g>
<!-- principal&#45;&gt;nodoprint89 -->
<g id="edge15" class="edge">
<title>principal&#45;&gt;nodoprint89</title>
<path fill="none" stroke="black" d="M309.21,-222.97C335.12,-211.78 377.47,-193.47 408.59,-180.03"/>
<polygon fill="black" stroke="black" points="409.91,-183.27 417.7,-176.09 407.13,-176.85 409.91,-183.27"/>
</g>
<!-- nodoIDSnodoasignacion33 -->
<g id="node3" class="node">
<title>nodoIDSnodoasignacion33</title>
<ellipse fill="none" stroke="black" cx="31" cy="-90" rx="27" ry="18"/>
<text text-anchor="middle" x="31" y="-84.58" font-family="Times New Roman,serif" font-size="14.00">ID</text>
</g>
<!-- nodoasignacion33&#45;&gt;nodoIDSnodoasignacion33 -->
<g id="edge2" class="edge">
<title>nodoasignacion33&#45;&gt;nodoIDSnodoasignacion33</title>
<path fill="none" stroke="black" d="M89.37,-144.76C79.13,-135.33 66.09,-123.32 54.93,-113.04"/>
<polygon fill="black" stroke="black" points="57.31,-110.48 47.58,-106.28 52.57,-115.62 57.31,-110.48"/>
</g>
<!-- nododato34 -->
<g id="node5" class="node">
<title>nododato34</title>
<ellipse fill="none" stroke="black" cx="108" cy="-90" rx="28.61" ry="18"/>
<text text-anchor="middle" x="108" y="-84.58" font-family="Times New Roman,serif" font-size="14.00">Dato</text>
</g>
<!-- nodoasignacion33&#45;&gt;nododato34 -->
<g id="edge4" class="edge">
<title>nodoasignacion33&#45;&gt;nododato34</title>
<path fill="none" stroke="black" d="M107.25,-143.7C107.35,-136.41 107.48,-127.73 107.59,-119.54"/>
<polygon fill="black" stroke="black" points="111.09,-119.67 107.73,-109.62 104.09,-119.57 111.09,-119.67"/>
</g>
<!-- nodoidnodoasignacion33 -->
<g id="node4" class="node">
<title>nodoidnodoasignacion33</title>
<ellipse fill="none" stroke="black" cx="27" cy="-18" rx="27" ry="18"/>
<text text-anchor="middle" x="27" y="-12.57" font-family="Times New Roman,serif" font-size="14.00">nota</text>
</g>
<!-- nodoIDSnodoasignacion33&#45;&gt;nodoidnodoasignacion33 -->
<g id="edge3" class="edge">
<title>nodoIDSnodoasignacion33&#45;&gt;nodoidnodoasignacion33</title>
<path fill="none" stroke="black" d="M30.01,-71.7C29.59,-64.41 29.1,-55.73 28.63,-47.54"/>
<polygon fill="black" stroke="black" points="32.13,-47.4 28.06,-37.62 25.14,-47.8 32.13,-47.4"/>
</g>
<!-- nodovalnododato34 -->
<g id="node6" class="node">
<title>nodovalnododato34</title>
<ellipse fill="none" stroke="black" cx="110" cy="-18" rx="38.09" ry="18"/>
<text text-anchor="middle" x="110" y="-12.57" font-family="Times New Roman,serif" font-size="14.00">varchar</text>
</g>
<!-- nododato34&#45;&gt;nodovalnododato34 -->
<g id="edge1" class="edge">
<title>nododato34&#45;&gt;nodovalnododato34</title>
<path fill="none" stroke="black" d="M108.49,-71.7C108.7,-64.41 108.95,-55.73 109.18,-47.54"/>
<polygon fill="black" stroke="black" points="112.68,-47.71 109.47,-37.62 105.68,-47.51 112.68,-47.71"/>
</g>
<!-- nodoIDSnodoasignacion70 -->
<g id="node8" class="node">
<title>nodoIDSnodoasignacion70</title>
<ellipse fill="none" stroke="black" cx="193" cy="-90" rx="27" ry="18"/>
<text text-anchor="middle" x="193" y="-84.58" font-family="Times New Roman,serif" font-size="14.00">ID</text>
</g>
<!-- nodoasignacion70&#45;&gt;nodoIDSnodoasignacion70 -->
<g id="edge7" class="edge">
<title>nodoasignacion70&#45;&gt;nodoIDSnodoasignacion70</title>
<path fill="none" stroke="black" d="M220.29,-144.05C216.16,-136.03 211.13,-126.26 206.52,-117.3"/>
<polygon fill="black" stroke="black" points="209.76,-115.95 202.08,-108.65 203.54,-119.15 209.76,-115.95"/>
</g>
<!-- nododato23 -->
<g id="node10" class="node">
<title>nododato23</title>
<ellipse fill="none" stroke="black" cx="268" cy="-90" rx="28.61" ry="18"/>
<text text-anchor="middle" x="268" y="-84.58" font-family="Times New Roman,serif" font-size="14.00">Dato</text>
</g>
<!-- nodoasignacion70&#45;&gt;nododato23 -->
<g id="edge9" class="edge">
<title>nodoasignacion70&#45;&gt;nododato23</title>
<path fill="none" stroke="black" d="M238.44,-144.05C242.91,-136.03 248.36,-126.26 253.35,-117.3"/>
<polygon fill="black" stroke="black" points="256.37,-119.07 258.18,-108.63 250.25,-115.66 256.37,-119.07"/>
</g>
<!-- nodoidnodoasignacion70 -->
<g id="node9" class="node">
<title>nodoidnodoasignacion70</title>
<ellipse fill="none" stroke="black" cx="193" cy="-18" rx="27" ry="18"/>
<text text-anchor="middle" x="193" y="-12.57" font-family="Times New Roman,serif" font-size="14.00">nota</text>
</g>
<!-- nodoIDSnodoasignacion70&#45;&gt;nodoidnodoasignacion70 -->
<g id="edge8" class="edge">
<title>nodoIDSnodoasignacion70&#45;&gt;nodoidnodoasignacion70</title>
<path fill="none" stroke="black" d="M193,-71.7C193,-64.41 193,-55.73 193,-47.54"/>
<polygon fill="black" stroke="black" points="196.5,-47.62 193,-37.62 189.5,-47.62 196.5,-47.62"/>
</g>
<!-- nodovalnododato23 -->
<g id="node11" class="node">
<title>nodovalnododato23</title>
<ellipse fill="none" stroke="black" cx="274" cy="-18" rx="36.09" ry="18"/>
<text text-anchor="middle" x="274" y="-12.57" font-family="Times New Roman,serif" font-size="14.00">HOLA</text>
</g>
<!-- nododato23&#45;&gt;nodovalnododato23 -->
<g id="edge6" class="edge">
<title>nododato23&#45;&gt;nodovalnododato23</title>
<path fill="none" stroke="black" d="M269.48,-71.7C270.11,-64.41 270.85,-55.73 271.55,-47.54"/>
<polygon fill="black" stroke="black" points="275.04,-47.87 272.4,-37.61 268.06,-47.28 275.04,-47.87"/>
</g>
<!-- nodotiponodolower24 -->
<g id="node13" class="node">
<title>nodotiponodolower24</title>
<ellipse fill="none" stroke="black" cx="343" cy="-90" rx="27" ry="18"/>
<text text-anchor="middle" x="343" y="-84.58" font-family="Times New Roman,serif" font-size="14.00">hola</text>
</g>
<!-- nodolower24&#45;&gt;nodotiponodolower24 -->
<g id="edge11" class="edge">
<title>nodolower24&#45;&gt;nodotiponodolower24</title>
<path fill="none" stroke="black" d="M343,-143.7C343,-136.41 343,-127.73 343,-119.54"/>
<polygon fill="black" stroke="black" points="346.5,-119.62 343,-109.62 339.5,-119.62 346.5,-119.62"/>
</g>
<!-- nodoid48 -->
<g id="node15" class="node">
<title>nodoid48</title>
<ellipse fill="none" stroke="black" cx="448" cy="-90" rx="27" ry="18"/>
<text text-anchor="middle" x="448" y="-84.58" font-family="Times New Roman,serif" font-size="14.00">Id</text>
</g>
<!-- nodoprint89&#45;&gt;nodoid48 -->
<g id="edge14" class="edge">
<title>nodoprint89&#45;&gt;nodoid48</title>
<path fill="none" stroke="black" d="M448,-143.7C448,-136.41 448,-127.73 448,-119.54"/>
<polygon fill="black" stroke="black" points="451.5,-119.62 448,-109.62 444.5,-119.62 451.5,-119.62"/>
</g>
<!-- nodovalnodoid48 -->
<g id="node16" class="node">
<title>nodovalnodoid48</title>
<ellipse fill="none" stroke="black" cx="448" cy="-18" rx="27" ry="18"/>
<text text-anchor="middle" x="448" y="-12.57" font-family="Times New Roman,serif" font-size="14.00">nota</text>
</g>
<!-- nodoid48&#45;&gt;nodovalnodoid48 -->
<g id="edge13" class="edge">
<title>nodoid48&#45;&gt;nodovalnodoid48</title>
<path fill="none" stroke="black" d="M448,-71.7C448,-64.41 448,-55.73 448,-47.54"/>
<polygon fill="black" stroke="black" points="451.5,-47.62 448,-37.62 444.5,-47.62 451.5,-47.62"/>
</g>
</g>
</svg>
